<?xml version="1.0" encoding="UTF-8" standalone="no"?>
<!--
  capture.svg

  VCW - The Vinyl Capture Workstation
  (c) 2026 Stue Hunter

  A record, which is what a capture is of. Worn as a mask-image, so only the shape is read.

  MIT License - see the header in any Rust source file for the full text.
-->
<svg
   width="800"
   height="800"
   viewBox="0 0 73.768 73.768"
   version="1.1"
   xml:space="preserve"
   xmlns="http://www.w3.org/2000/svg"><path
     style="opacity:1;fill:#4f8cc9;stroke-linecap:round;stroke-linejoin:round"
     d="m 36.88391,4.61059 c -17.80778,0 -32.27332,14.465721 -32.27332,32.2735 0,17.807779 14.46554,32.27332 32.27332,32.27332 17.80778,5e-6 32.2735,-14.465537 32.2735,-32.27332 0,-17.807783 -14.46572,-32.2735057 -32.2735,-32.2735 z m 0,2.7655796 c 16.31276,-5.3e-6 29.50792,13.1951574 29.50792,29.5079204 0,16.312763 -13.19516,29.505765 -29.50792,29.505759 C 20.57115,66.38985 7.37815,53.19685 7.37815,36.88409 c 0,-16.312759 13.193,-29.5079204 29.50576,-29.5079204 z m 0,4.1503504 c -13.98832,0 -25.35739,11.369255 -25.35739,25.35757 1.99e-4,0.763611 0.619179,1.382591 1.38279,1.38279 0.763611,-1.99e-4 1.382591,-0.619179 1.38279,-1.38279 0,-12.493296 10.09851,-22.59181 22.59181,-22.59181 0.763682,-1.99e-4 1.382691,-0.619288 1.38279,-1.38297 -1.99e-4,-0.763611 -0.619179,-1.382591 -1.38279,-1.38279 z m 0,4.517569 c -11.49293,0 -20.83982,9.347068 -20.83982,20.840001 1.98e-4,0.764385 0.620385,1.383685 1.38477,1.38279 0.763611,-1.99e-4 1.382591,-0.619179 1.38279,-1.38279 0,-9.997913 8.07435,-18.074241 18.07226,-18.074241 0.763682,-1.99e-4 1.382691,-0.619288 1.38279,-1.38297 -1.99e-4,-0.763611 -0.619179,-1.382591 -1.38279,-1.38279 z m 0,7.285311 c -7.46976,6e-6 -13.55469,6.08493 -13.55469,13.55469 0,7.469761 6.08493,13.554503 13.55469,13.55451 7.46977,0 13.55469,-6.084745 13.55469,-13.55451 0,-7.469765 -6.08492,-13.55469 -13.55469,-13.55469 z m 0,2.765579 c 5.97475,0 10.78911,4.814366 10.78911,10.789111 0,5.974746 -4.81436,10.78695 -10.78911,10.786949 -5.97474,-4e-6 -10.78713,-4.812207 -10.78713,-10.786949 0,-5.974742 4.81239,-10.789106 10.78713,-10.789111 z m 19.45703,9.406141 c -0.763682,1.99e-4 -1.382691,0.619288 -1.38279,1.38297 0,9.997913 -8.07633,18.072259 -18.07424,18.072259 -0.763611,1.99e-4 -1.382591,0.619179 -1.38279,1.38279 1.99e-4,0.763611 0.619179,1.382591 1.38279,1.38279 11.49293,0 20.83982,-9.344906 20.83982,-20.837839 -9.9e-5,-0.763682 -0.619108,-1.382771 -1.38279,-1.38297 z m 4.51757,0 c -0.763682,1.99e-4 -1.382691,0.619288 -1.38279,1.38297 0,12.493297 -10.09851,22.59163 -22.59181,22.59163 -0.763682,1.99e-4 -1.382691,0.619288 -1.38279,1.38297 1.99e-4,0.763611 0.619179,1.382591 1.38279,1.38279 13.98832,0 25.35739,-11.369074 25.35739,-25.35739 -9.9e-5,-0.763682 -0.619108,-1.382771 -1.38279,-1.38297 z" /><circle
     style="fill:#4f8cc9;fill-opacity:1;stroke:none;stroke-width:2.7663;stroke-linecap:round;stroke-linejoin:round"
     cx="36.883999"
     cy="36.883999"
     r="2.4165573" /></svg>
