<?xml version="1.0" encoding="UTF-8" standalone="no"?>
<!-- Uploaded to: SVG Repo, www.svgrepo.com, Generator: SVG Repo Mixer Tools -->

<svg
   width="800"
   height="800"
   viewBox="0 0 73.768 73.768"
   version="1.1"
   id="svg1"
   sodipodi:docname="globe-filled.svg"
   xml:space="preserve"
   inkscape:version="1.4.4 (1:1.4.4+202605061435+dcaf3e7d9e)"
   xmlns:inkscape="http://www.inkscape.org/namespaces/inkscape"
   xmlns:sodipodi="http://sodipodi.sourceforge.net/DTD/sodipodi-0.dtd"
   xmlns="http://www.w3.org/2000/svg"
   xmlns:svg="http://www.w3.org/2000/svg"><sodipodi:namedview
     id="namedview1"
     pagecolor="#ffffff"
     bordercolor="#000000"
     borderopacity="0.25"
     inkscape:showpageshadow="2"
     inkscape:pageopacity="0.0"
     inkscape:pagecheckerboard="0"
     inkscape:deskcolor="#d1d1d1"
     inkscape:zoom="0.3577007"
     inkscape:cx="640.20003"
     inkscape:cy="457.08604"
     inkscape:window-width="1037"
     inkscape:window-height="991"
     inkscape:window-x="26"
     inkscape:window-y="23"
     inkscape:window-maximized="0"
     inkscape:current-layer="svg1" /><defs
     id="defs1" /><path
     id="rect1"
     style="fill:#4f8cc9;fill-opacity:1;stroke-width:0.33546;stroke-linecap:round"
     d="M 32.024065,3.3519776 C 25.54097,4.2912845 19.471237,7.0966229 14.554952,11.425936 c 2.378043,2.086937 5.037329,3.829644 7.899984,5.177087 v 9e-4 c 2.273672,-5.011477 5.527267,-9.517265 9.569129,-13.2519454 z m 9.894025,0.021071 v 0.00288 c 4.014527,3.7136119 7.250589,8.1883894 9.519962,13.1640584 2.814051,-1.339002 5.429458,-3.060647 7.771934,-5.116034 C 54.339669,7.1340482 48.336075,4.3388443 41.91809,3.3730486 Z M 38.384033,4.3079359 V 19.784088 C 41.885158,19.631656 45.341365,18.936356 48.629069,17.72305 47.484077,15.242094 46.084536,12.88675 44.452964,10.694919 42.695048,8.3288965 40.657257,6.1843113 38.384033,4.3079359 Z m -3.000066,0.1280495 c -2.211491,1.846988 -4.197239,3.948559 -5.916028,6.2610946 -1.642478,2.205974 -3.050073,4.577457 -4.199878,7.075857 3.249075,1.184778 6.660784,1.863731 10.115906,2.013132 z m 25.994035,9.0680966 c -2.633399,2.346992 -5.590685,4.303009 -8.781022,5.80797 1.914528,5.14583 2.944754,10.57846 3.047072,16.067952 H 70.729933 C 70.371112,27.194651 67.047148,19.419277 61.378002,13.504082 Z m -48.988004,0.004 C 6.7212392,19.423496 3.3973413,27.198718 3.0380674,35.383967 H 18.277931 c 0.101736,-5.466793 1.123368,-10.877422 3.022039,-16.004919 -3.239446,-1.51374 -6.240982,-3.491526 -8.909972,-5.871003 z m 37.394037,6.987969 c -3.654602,1.362899 -7.502612,2.136222 -11.400002,2.291022 v 12.599992 l 14.254009,-0.0031 C 52.524741,30.296763 51.560056,25.264476 49.784035,20.496014 Z m -25.67112,0.05205 c -1.763216,4.753986 -2.721328,9.768723 -2.834917,14.837886 H 35.383967 V 22.787036 C 31.532944,22.63503 27.729644,21.879511 24.112915,20.548062 Z M 3.0380674,38.384033 c 0.3555649,8.131043 3.6369747,15.859833 9.2399106,21.763001 2.76102,-2.481903 5.881647,-4.531799 9.255939,-6.080097 -2.000626,-4.995038 -3.1029,-10.304292 -3.255986,-15.682904 z m 18.2399306,0 c 0.165258,4.988689 1.210644,9.908944 3.087954,14.533881 3.541329,-1.274509 7.257219,-1.998214 11.018015,-2.145863 V 38.386014 Z m 17.106035,0 V 50.77007 c 3.808228,0.150423 7.57001,0.891224 11.150927,2.19593 1.88945,-4.638749 2.941062,-9.575888 3.105964,-14.581967 z m 17.258038,0 c -0.153801,5.39991 -1.264004,10.729759 -3.279038,15.741976 3.323465,1.54203 6.39802,3.571722 9.121947,6.021926 5.60467,-5.902851 8.887871,-13.631961 9.244953,-21.763902 z M 38.384033,53.767075 v 15.397989 c 4.08377,-3.858088 7.444062,-8.41594 9.92194,-13.457977 -3.191352,-1.140431 -6.536071,-1.794416 -9.92194,-1.940012 z m -3.000066,0.0029 c -3.339586,0.143618 -6.639429,0.781556 -9.79191,1.893007 2.449118,4.997131 5.764336,9.520754 9.79191,13.361085 v -15.25213 z m -12.637993,3.044011 c -3.020558,1.39009 -5.819368,3.218458 -8.305924,5.425982 5.06457,4.49909 11.365697,7.370215 18.083966,8.240008 v -0.002 c -4.022454,-3.95712 -7.330515,-8.579863 -9.778042,-13.664009 z m 28.399959,0.05709 c -2.438629,5.053306 -5.728975,9.649092 -9.726894,13.586027 6.653946,-0.897194 12.88923,-3.758126 17.908911,-8.217136 -2.452973,-2.175855 -5.209108,-3.983714 -8.182017,-5.36691 z" /></svg>
