<?xml version="1.0" encoding="UTF-8" standalone="no"?>
<!-- Created with Inkscape (http://www.inkscape.org/) -->
<!--
  play.svg

  VCW - The Vinyl Capture Workstation
  (c) 2026 Stue Hunter

  The play key.

  A key cap rather than a bare glyph, because the transport is the one control
  group a person hits by feel. The cap is #2d3340, one clear step above the
  panel so that it reads as raised, with the inner band along the left and the
  bottom in #13161b, which puts the light at the top right. The glyph is the
  interface text color, except record, which takes the band red from the logo:
  red is what a record key is on every deck ever made, and it is the only
  saturated thing in the row, so it is also the first thing the eye finds.

  MIT License - see the header in any Rust source file for the full text.
-->
<svg
   width="37.157028mm"
   height="22.570187mm"
   viewBox="0 0 37.157028 22.570187"
   version="1.1"
   id="svg1"
   xml:space="preserve"
   xmlns="http://www.w3.org/2000/svg"
   xmlns:svg="http://www.w3.org/2000/svg"><defs
     id="defs1" /><g
     id="layer1"
     transform="translate(-89.393707,-57.706745)"><g
       id="g16"><g
         id="g11"><rect
           style="fill:#2d3340;fill-opacity:1;stroke-width:1;stroke-linecap:round"
           id="rect1"
           width="37.157028"
           height="22.570187"
           x="89.393707"
           y="57.706745"
           rx="6.1999998" /><path
           id="rect3"
           style="fill:#13161b;fill-opacity:0.727083;stroke-width:1;stroke-linecap:round"
           d="m 91.766689,59.021393 c -1.446617,1.133062 -2.372982,2.897249 -2.372982,4.88549 v 10.169922 c 0,3.4348 2.765338,6.200139 6.200138,6.200139 h 24.757145 c 1.98824,0 3.75191,-0.926366 4.88497,-2.372982 -1.05249,0.824366 -2.38008,1.314648 -3.82664,1.314648 H 96.652179 c -3.4348,0 -6.200139,-2.765338 -6.200139,-6.200138 V 62.84855 c 0,-1.446558 0.490282,-2.774661 1.314649,-3.827157 z" /></g><path
         id="path8"
         d="m 103.3193,73.491231 0.002,-3.192687 0.003,-5.806874 a 0.75465075,0.75465075 0 0 1 1.13231,-0.652967 l 2.76413,1.597765 5.02742,2.906017 a 0.75465075,0.75465075 0 0 1 -6.7e-4,1.307093 l -2.76577,1.594926 -5.0304,2.900856 a 0.75465075,0.75465075 0 0 1 -1.13164,-0.654129 z"
         style="fill:#d8dee9;fill-opacity:1;stroke-width:1.23504;stroke-linecap:round" /></g></g></svg>
